HIERARCHY
ROOT Hips
{
	OFFSET 0.00 0.00 0.00
	CHANNELS 6 Xposition Yposition Zposition Xrotation Yrotation Zrotation
	JOINT Spine
	{
		OFFSET 0.00000 1.15266 1.72900
		CHANNELS 3 Xrotation Yrotation Zrotation
		JOINT Spine1
		{
			OFFSET 0.00000 0.40032 2.27031
			CHANNELS 3 Xrotation Yrotation Zrotation
			JOINT Spine2
			{
				OFFSET 0.00000 0.20092 2.29656
				CHANNELS 3 Xrotation Yrotation Zrotation
				JOINT Spine3
				{
					OFFSET 0.00000 0.00000 2.30533
					CHANNELS 3 Xrotation Yrotation Zrotation
					JOINT Neck
					{
						OFFSET 0.00000 -0.86449 6.05149
						CHANNELS 3 Xrotation Yrotation Zrotation
						JOINT Head
						{
							OFFSET 0.00000 -0.55043 3.12167
							CHANNELS 3 Xrotation Yrotation Zrotation
							End Site
							{
								OFFSET 0.00000 0.00000 3.73175
							}
						}
					}
					JOINT RightShoulder
					{
						OFFSET -0.78828 -1.31380 4.25672
						CHANNELS 3 Xrotation Yrotation Zrotation
						JOINT RightArm
						{
							OFFSET -3.91513 0.00000 0.00000
							CHANNELS 3 Xrotation Yrotation Zrotation
							JOINT RightForeArm
							{
								OFFSET -6.91491 0.00000 0.00000
								CHANNELS 3 Xrotation Yrotation Zrotation
								JOINT RightHand
								{
									OFFSET -6.09622 0.00000 0.00000
									CHANNELS 3 Xrotation Yrotation Zrotation
									JOINT RightHandEnd
									{
										OFFSET -1.74995 0.00000 0.00000
										CHANNELS 3 Xrotation Yrotation Zrotation
										End Site
										{
											OFFSET -1.74995 0.00000 0.00000
										}
									}
									JOINT RightHandThumb1
									{
										OFFSET -0.69998 -1.16663 -0.46665
										CHANNELS 3 Yrotation Xrotation Zrotation
										End Site
										{
											OFFSET -1.69032 -0.45292 0.00000
										}
									}
								}
							}
						}
					}
					JOINT LeftShoulder
					{
						OFFSET 0.78828 -1.31380 4.25672
						CHANNELS 3 Xrotation Yrotation Zrotation
						JOINT LeftArm
						{
							OFFSET 3.91513 0.00000 0.00000
							CHANNELS 3 Xrotation Yrotation Zrotation
							JOINT LeftForeArm
							{
								OFFSET 6.91491 0.00000 0.00000
								CHANNELS 3 Xrotation Yrotation Zrotation
								JOINT LeftHand
								{
									OFFSET 6.09622 0.00000 0.00000
									CHANNELS 3 Xrotation Yrotation Zrotation
									JOINT LeftHandEnd
									{
										OFFSET 1.74995 0.00000 0.00000
										CHANNELS 3 Xrotation Yrotation Zrotation
										End Site
										{
											OFFSET 1.74995 0.00000 0.00000
										}
									}
									JOINT LeftHandThumb1
									{
										OFFSET 0.69998 -1.16663 -0.46665
										CHANNELS 3 Yrotation Xrotation Zrotation
										End Site
										{
											OFFSET 1.69032 -0.45292 0.00000
										}
									}
								}
							}
						}
					}
				}
			}
		}
	}
	JOINT RightUpLeg
	{
		OFFSET -2.33857 0.00000 -0.68318
		CHANNELS 3 Xrotation Yrotation Zrotation
		JOINT RightLeg
		{
			OFFSET 0.00000 0.00000 -10.74496
			CHANNELS 3 Xrotation Yrotation Zrotation
			JOINT RightFoot
			{
				OFFSET 0.00000 0.00000 -10.93085
				CHANNELS 3 Xrotation Yrotation Zrotation
				JOINT RightToeBase
				{
					OFFSET 0.00000 -4.08727 -1.48765
					CHANNELS 3 Xrotation Yrotation Zrotation
					End Site
					{
						OFFSET 0.00000 -1.89187 -0.00000
					}
				}
			}
		}
	}
	JOINT LeftUpLeg
	{
		OFFSET 2.33857 0.00000 -0.68318
		CHANNELS 3 Xrotation Yrotation Zrotation
		JOINT LeftLeg
		{
			OFFSET 0.00000 0.00000 -10.74496
			CHANNELS 3 Xrotation Yrotation Zrotation
			JOINT LeftFoot
			{
				OFFSET 0.00000 0.00000 -10.93085
				CHANNELS 3 Xrotation Yrotation Zrotation
				JOINT LeftToeBase
				{
					OFFSET 0.00000 -4.08727 -1.48765
					CHANNELS 3 Xrotation Yrotation Zrotation
					End Site
					{
						OFFSET 0.00000 -1.89187 -0.00000
					}
				}
			}
		}
	}
}
MOTION
Frames: 12
Frame Time: 0.008342
 -2.1063 -5.9574 24.7493 -4.6472 -6.5070 172.5659 -3.6217 -3.6066 0.3284 -1.9352 -9.0251 -0.6437 7.8586 15.2133 15.8680 -3.6937 -0.3486 2.7992 -19.3329 -8.4326 -12.7985 13.6207 -0.5672 -17.4399 -0.4558 -19.1585 11.9872 -4.8581 -5.9984 21.1043 0.0000 0.0000 28.0664 10.0856 14.0967 -5.7120 0.0000 -0.0000 -0.0000 0.0000 -0.0000 -0.0000 -6.9733 26.0340 -0.7639 23.7242 23.1511 -26.5511 -0.0000 -0.0000 -58.3551 2.6902 -22.5035 -5.6806 0.0000 -0.0000 0.0000 0.0000 -0.0000 0.0000 -2.1528 2.8083 13.2003 39.8604 0.0000 0.0000 14.5340 -12.2777 16.7167 -0.6900 0.0000 -0.0000 -17.8892 -3.9926 -5.7068 26.9516 0.0000 0.0000 -14.1148 -2.6428 -6.7197 -3.0678 0.0000 -0.0000
 -2.1091 -5.9271 24.7617 -4.7869 -6.5695 172.3817 -3.5692 -3.6587 0.3360 -1.9260 -8.9396 -0.6252 7.9148 15.1811 15.8905 -3.6806 -0.3317 2.8056 -19.3724 -8.5682 -12.9481 13.4944 -0.5995 -17.5605 -0.3661 -19.0289 12.0008 -4.8880 -6.0488 21.1054 0.0000 0.0000 28.2591 10.2833 14.5847 -5.6447 0.0000 -0.0000 -0.0000 0.0000 0.0000 -0.0000 -6.8678 26.0837 -0.8166 23.6984 22.9362 -26.1733 -0.0000 -0.0000 -57.9330 2.5742 -22.8640 -5.7721 0.0000 0.0000 -0.0000 0.0000 0.0000 -0.0000 -2.1619 2.7859 13.3834 39.5382 0.0000 0.0000 14.8382 -12.2427 16.9136 -0.7794 0.0000 -0.0000 -17.7954 -4.1309 -5.5159 26.7237 0.0000 0.0000 -14.1159 -2.6525 -6.7683 -3.1143 0.0000 -0.0000
 -2.1120 -5.8995 24.7738 -4.9348 -6.6115 172.1917 -3.5195 -3.6960 0.3461 -1.9124 -8.8794 -0.6100 7.9459 15.1967 15.9223 -3.6688 -0.3224 2.8120 -19.4012 -8.7161 -13.1034 13.3814 -0.6228 -17.6816 -0.2881 -18.9258 12.0001 -4.8999 -6.0771 21.1097 0.0000 0.0000 28.4713 10.6250 14.9715 -5.6072 0.0000 0.0000 -0.0000 0.0000 -0.0000 0.0000 -6.7711 26.1380 -0.8702 23.7351 22.7118 -25.7994 -0.0000 -0.0000 -57.3934 2.4702 -23.2237 -5.8659 -0.0000 0.0000 -0.0000 -0.0000 0.0000 0.0000 -2.2148 2.7724 13.5427 39.2906 0.0000 0.0000 15.1436 -12.1843 17.1086 -0.8503 0.0000 -0.0000 -17.7061 -4.2471 -5.3369 26.4715 0.0000 0.0000 -14.0898 -2.6654 -6.7918 -3.1493 0.0000 -0.0000
 -2.1154 -5.8749 24.7852 -5.1069 -6.6200 171.9953 -3.4918 -3.7106 0.3590 -1.8948 -8.8308 -0.5961 7.9584 15.2441 15.9576 -3.6592 -0.3170 2.8171 -19.4230 -8.8754 -13.2605 13.2827 -0.6365 -17.8004 -0.2224 -18.8472 11.9894 -4.8883 -6.0821 21.1195 0.0000 0.0000 28.7021 11.1108 15.2534 -5.6019 0.0000 -0.0000 0.0000 0.0000 -0.0000 -0.0000 -6.6821 26.1956 -0.9244 23.8210 22.4902 -25.4220 -0.0000 -0.0000 -56.7513 2.3653 -23.5669 -5.9652 0.0000 -0.0000 0.0000 0.0000 -0.0000 0.0000 -2.3374 2.7825 13.6664 39.1322 0.0000 0.0000 15.4381 -12.0945 17.3045 -0.9011 0.0000 -0.0000 -17.6417 -4.3290 -5.1689 26.1957 0.0000 0.0000 -14.0373 -2.6865 -6.7887 -3.1670 0.0000 -0.0000
 -2.1189 -5.8527 24.7963 -5.2796 -6.6006 171.7905 -3.4571 -3.7066 0.3817 -1.8824 -8.7951 -0.5851 7.9545 15.3320 15.9906 -3.6516 -0.3214 2.8226 -19.4375 -9.0468 -13.4180 13.1974 -0.6419 -17.9141 -0.1655 -18.7927 11.9720 -4.8469 -6.0604 21.1370 0.0000 0.0000 28.9499 11.7263 15.4349 -5.6294 0.0000 0.0000 0.0000 -0.0000 -0.0000 0.0000 -6.5943 26.2513 -0.9818 23.9422 22.2828 -25.0356 -0.0000 -0.0000 -56.0223 2.2431 -23.8813 -6.0725 0.0000 0.0000 -0.0000 0.0000 0.0000 -0.0000 -2.4979 2.8135 13.7569 39.0510 0.0000 0.0000 15.7138 -11.9681 17.4883 -0.9316 0.0000 -0.0000 -17.5725 -4.3845 -4.9953 25.8926 0.0000 0.0000 -13.9668 -2.7174 -6.7726 -3.1641 0.0000 -0.0000
 -2.1234 -5.8320 24.8067 -5.4404 -6.5435 171.5942 -3.4223 -3.6796 0.3962 -1.8556 -8.7432 -0.5695 7.9343 15.4288 16.0217 -3.6440 -0.3273 2.8212 -19.4454 -9.2285 -13.5700 13.1247 -0.6406 -18.0219 -0.1167 -18.7547 11.9512 -4.7693 -6.0167 21.1676 0.0000 0.0000 29.2077 12.4508 15.5304 -5.6839 -0.0000 0.0000 0.0000 0.0000 -0.0000 0.0000 -6.5028 26.3018 -1.0372 24.0851 22.0998 -24.6435 -0.0000 -0.0000 -55.2181 2.0901 -24.1569 -6.1911 -0.0000 -0.0000 -0.0000 0.0000 0.0000 -0.0000 -2.6767 2.8853 13.7882 39.0362 0.0000 0.0000 15.9575 -11.8023 17.6560 -0.9472 0.0000 -0.0000 -17.4858 -4.3918 -4.8408 25.5596 0.0000 0.0000 -13.8806 -2.7613 -6.7298 -3.1382 0.0000 -0.0000
 -2.1281 -5.8130 24.8167 -5.5932 -6.4584 171.3962 -3.3786 -3.6264 0.4147 -1.8504 -8.6784 -0.5533 7.9316 15.5168 16.0406 -3.6381 -0.3339 2.8215 -19.4509 -9.4077 -13.7166 13.0625 -0.6389 -18.1199 -0.0758 -18.7207 11.9289 -4.6512 -5.9525 21.2115 0.0000 0.0000 29.4719 13.2521 15.5573 -5.7594 -0.0000 -0.0000 0.0000 0.0000 -0.0000 -0.0000 -6.4054 26.3590 -1.0967 24.2356 21.9420 -24.2354 -0.0000 -0.0000 -54.3555 1.8897 -24.3859 -6.3243 0.0000 0.0000 0.0000 0.0000 0.0000 0.0000 -2.8779 2.9830 13.7745 39.0812 0.0000 0.0000 16.1630 -11.6035 17.7882 -0.9532 0.0000 -0.0000 -17.3887 -4.3711 -4.6779 25.2057 0.0000 0.0000 -13.7898 -2.8143 -6.6839 -3.0915 0.0000 -0.0000
 -2.1332 -5.7963 24.8262 -5.7504 -6.3445 171.1942 -3.3487 -3.5557 0.4371 -1.8433 -8.6038 -0.5342 7.9311 15.6132 16.0498 -3.6317 -0.3418 2.8170 -19.4563 -9.5937 -13.8550 13.0077 -0.6364 -18.2108 -0.0308 -18.6978 11.9128 -4.5003 -5.8639 21.2696 0.0000 0.0000 29.7360 14.0930 15.5350 -5.8438 -0.0000 0.0000 -0.0000 0.0000 -0.0000 0.0000 -6.3184 26.4132 -1.1542 24.3998 21.8189 -23.8073 -0.0000 -0.0000 -53.4487 1.6364 -24.5654 -6.4728 0.0000 0.0000 0.0000 0.0000 -0.0000 0.0000 -3.1137 3.1071 13.7149 39.1775 0.0000 0.0000 16.3271 -11.3794 17.8775 -0.9580 0.0000 -0.0000 -17.2960 -4.3259 -4.4958 24.8339 0.0000 0.0000 -13.6982 -2.8734 -6.6468 -3.0273 0.0000 -0.0000
 -2.1388 -5.7811 24.8352 -5.9020 -6.2058 170.9947 -3.3197 -3.4732 0.4582 -1.8430 -8.5189 -0.5149 7.9358 15.7230 16.0515 -3.6229 -0.3541 2.8107 -19.4615 -9.7823 -13.9874 12.9576 -0.6376 -18.2952 0.0141 -18.6810 11.9011 -4.3088 -5.7568 21.3398 0.0000 0.0000 29.9945 14.9354 15.4902 -5.9275 -0.0000 0.0000 -0.0000 0.0000 -0.0000 -0.0000 -6.2096 26.4703 -1.2113 24.5514 21.7123 -23.3805 -0.0000 -0.0000 -52.4991 1.3200 -24.6981 -6.6371 0.0000 -0.0000 -0.0000 0.0000 0.0000 -0.0000 -3.3659 3.2568 13.6076 39.3079 0.0000 0.0000 16.4508 -11.1429 17.9165 -0.9699 0.0000 -0.0000 -17.1979 -4.2551 -4.3061 24.4471 0.0000 0.0000 -13.6085 -2.9351 -6.6130 -2.9511 0.0000 -0.0000
 -2.1446 -5.7675 24.8437 -6.0486 -6.0456 170.7950 -3.2991 -3.3757 0.4796 -1.8468 -8.4256 -0.4947 7.9551 15.8337 16.0468 -3.6111 -0.3648 2.8022 -19.4684 -9.9687 -14.1127 12.9093 -0.6457 -18.3751 0.0632 -18.6631 11.8940 -4.0852 -5.6391 21.4229 0.0000 0.0000 30.2400 15.7422 15.4454 -5.9987 0.0000 0.0000 0.0000 -0.0000 -0.0000 -0.0000 -6.0936 26.5327 -1.2656 24.6980 21.6255 -22.9526 -0.0000 -0.0000 -51.5172 0.9464 -24.7870 -6.8146 -0.0000 -0.0000 0.0000 -0.0000 -0.0000 0.0000 -3.6311 3.4271 13.4634 39.4615 0.0000 0.0000 16.5395 -10.9108 17.9001 -0.9957 0.0000 -0.0000 -17.0946 -4.1657 -4.0965 24.0471 0.0000 0.0000 -13.5218 -2.9944 -6.5942 -2.8699 0.0000 -0.0000
 -2.1506 -5.7562 24.8518 -6.2146 -5.8697 170.5934 -3.3040 -3.2770 0.5013 -1.8627 -8.3290 -0.4743 7.9918 15.9586 16.0355 -3.5966 -0.3755 2.7941 -19.4788 -10.1531 -14.2347 12.8599 -0.6623 -18.4526 0.1191 -18.6481 11.8923 -3.8370 -5.5130 21.5130 0.0000 0.0000 30.4685 16.4799 15.4204 -6.0475 0.0000 0.0000 -0.0000 -0.0000 -0.0000 -0.0000 -5.9649 26.6043 -1.3176 24.8358 21.5456 -22.5326 -0.0000 -0.0000 -50.5077 0.5234 -24.8416 -7.0005 -0.0000 -0.0000 -0.0000 0.0000 -0.0000 0.0000 -3.9358 3.6057 13.2906 39.6352 0.0000 0.0000 16.6030 -10.6993 17.8287 -1.0402 0.0000 -0.0000 -17.0188 -4.0676 -3.8705 23.6455 0.0000 0.0000 -13.4373 -3.0455 -6.5912 -2.7903 0.0000 -0.0000
 -2.1565 -5.7445 24.8600 -6.3386 -5.6881 170.3941 -3.2847 -3.1773 0.5249 -1.8787 -8.2193 -0.4525 8.0426 16.0824 16.0280 -3.5782 -0.3827 2.7808 -19.4875 -10.3316 -14.3515 12.8079 -0.6903 -18.5319 0.1850 -18.6295 11.8978 -3.5721 -5.3902 21.6034 0.0000 0.0000 30.6774 17.1217 15.4359 -6.0683 0.0000 -0.0000 -0.0000 0.0000 -0.0000 0.0000 -5.8378 26.6758 -1.3625 24.9796 21.4859 -22.1272 -0.0000 -0.0000 -49.4747 0.0692 -24.8694 -7.1896 0.0000 0.0000 -0.0000 -0.0000 -0.0000 0.0000 -4.1949 3.7912 13.1073 39.7988 0.0000 0.0000 16.6543 -10.5267 17.6983 -1.1050 0.0000 -0.0000 -16.8898 -3.9626 -3.6196 23.2237 0.0000 0.0000 -13.3522 -3.0858 -6.6085 -2.7189 0.0000 -0.0000
